<?xml version="1.0" encoding="UTF-8" standalone="no"?>
<!DOCTYPE svg PUBLIC "-//W3C//DTD SVG 1.1//EN"
 "http://www.w3.org/Graphics/SVG/1.1/DTD/svg11.dtd">
<!-- Generated by graphviz version 2.40.1 (20161225.0304)
 -->
<!-- Title: finite_state_machine Pages: 1 -->
<svg width="388pt" height="172pt"
 viewBox="0.00 0.00 388.00 172.08" xmlns="http://www.w3.org/2000/svg" xmlns:xlink="http://www.w3.org/1999/xlink">
<g id="graph0" class="graph" transform="scale(1 1) rotate(0) translate(4 168.0807)">
<title>finite_state_machine</title>
<polygon fill="#ffffff" stroke="transparent" points="-4,4 -4,-168.0807 384,-168.0807 384,4 -4,4"/>
<!-- 0 -->
<g id="node1" class="node">
<title>0</title>
<ellipse fill="none" stroke="#000000" cx="18" cy="-74.0807" rx="18" ry="18"/>
<text text-anchor="middle" x="18" y="-70.3807" font-family="Times,serif" font-size="14.00" fill="#000000">0</text>
</g>
<!-- 2 -->
<g id="node2" class="node">
<title>2</title>
<ellipse fill="none" stroke="#000000" cx="190" cy="-146.0807" rx="18" ry="18"/>
<text text-anchor="middle" x="190" y="-142.3807" font-family="Times,serif" font-size="14.00" fill="#000000">2</text>
</g>
<!-- 0&#45;&gt;2 -->
<g id="edge1" class="edge">
<title>0&#45;&gt;2</title>
<path fill="none" stroke="#000000" d="M33.5545,-83.7878C56.1548,-97.4657 99.7738,-122.2787 140,-136.0807 147.0571,-138.502 154.8869,-140.4129 162.2157,-141.887"/>
<polygon fill="#000000" stroke="#000000" points="161.6449,-145.3406 172.11,-143.6878 162.8983,-138.4537 161.6449,-145.3406"/>
<text text-anchor="middle" x="104" y="-131.8807" font-family="Times,serif" font-size="14.00" fill="#000000">8</text>
</g>
<!-- 3 -->
<g id="node3" class="node">
<title>3</title>
<ellipse fill="none" stroke="#000000" cx="104" cy="-74.0807" rx="18" ry="18"/>
<text text-anchor="middle" x="104" y="-70.3807" font-family="Times,serif" font-size="14.00" fill="#000000">3</text>
</g>
<!-- 0&#45;&gt;3 -->
<g id="edge2" class="edge">
<title>0&#45;&gt;3</title>
<path fill="none" stroke="#000000" d="M36.2384,-74.0807C47.6403,-74.0807 62.5658,-74.0807 75.506,-74.0807"/>
<polygon fill="#000000" stroke="#000000" points="75.7879,-77.5808 85.7879,-74.0807 75.7879,-70.5808 75.7879,-77.5808"/>
<text text-anchor="middle" x="61" y="-77.8807" font-family="Times,serif" font-size="14.00" fill="#000000">10</text>
</g>
<!-- 1 -->
<g id="node4" class="node">
<title>1</title>
<ellipse fill="none" stroke="#000000" cx="190" cy="-37.0807" rx="18" ry="18"/>
<text text-anchor="middle" x="190" y="-33.3807" font-family="Times,serif" font-size="14.00" fill="#000000">1</text>
</g>
<!-- 0&#45;&gt;1 -->
<g id="edge3" class="edge">
<title>0&#45;&gt;1</title>
<path fill="none" stroke="#000000" d="M31.7403,-62.3698C44.7462,-52.1128 65.3102,-37.9551 86,-32.0807 111.1401,-24.9427 141.054,-27.4616 162.3318,-31.0067"/>
<polygon fill="#000000" stroke="#000000" points="161.8428,-34.4755 172.3121,-32.8497 163.114,-27.5919 161.8428,-34.4755"/>
<text text-anchor="middle" x="104" y="-35.8807" font-family="Times,serif" font-size="14.00" fill="#000000">7</text>
</g>
<!-- 4 -->
<g id="node5" class="node">
<title>4</title>
<ellipse fill="none" stroke="#000000" cx="276" cy="-91.0807" rx="18" ry="18"/>
<text text-anchor="middle" x="276" y="-87.3807" font-family="Times,serif" font-size="14.00" fill="#000000">4</text>
</g>
<!-- 2&#45;&gt;4 -->
<g id="edge4" class="edge">
<title>2&#45;&gt;4</title>
<path fill="none" stroke="#000000" d="M205.3751,-136.2478C218.3383,-127.9574 237.1102,-115.952 252.0428,-106.4021"/>
<polygon fill="#000000" stroke="#000000" points="254.2193,-109.1648 260.758,-100.8284 250.4478,-103.2677 254.2193,-109.1648"/>
<text text-anchor="middle" x="233" y="-124.8807" font-family="Times,serif" font-size="14.00" fill="#000000">12</text>
</g>
<!-- 3&#45;&gt;2 -->
<g id="edge9" class="edge">
<title>3&#45;&gt;2</title>
<path fill="none" stroke="#000000" d="M117.5297,-86.4057C124.2194,-92.4228 132.4574,-99.7187 140,-106.0807 148.8865,-113.5761 158.8565,-121.6229 167.5418,-128.5196"/>
<polygon fill="#000000" stroke="#000000" points="165.381,-131.273 175.3981,-134.724 169.7195,-125.7795 165.381,-131.273"/>
<text text-anchor="middle" x="147" y="-120.8807" font-family="Times,serif" font-size="14.00" fill="#000000">2</text>
</g>
<!-- 3&#45;&gt;1 -->
<g id="edge10" class="edge">
<title>3&#45;&gt;1</title>
<path fill="none" stroke="#000000" d="M120.5817,-66.9467C132.8756,-61.6574 149.8735,-54.3444 163.972,-48.2788"/>
<polygon fill="#000000" stroke="#000000" points="165.3731,-51.4862 173.1758,-44.319 162.6066,-45.0561 165.3731,-51.4862"/>
<text text-anchor="middle" x="147" y="-60.8807" font-family="Times,serif" font-size="14.00" fill="#000000">11</text>
</g>
<!-- 3&#45;&gt;4 -->
<g id="edge8" class="edge">
<title>3&#45;&gt;4</title>
<path fill="none" stroke="#000000" d="M122.0819,-75.8678C152.019,-78.8267 212.1028,-84.7652 247.7011,-88.2837"/>
<polygon fill="#000000" stroke="#000000" points="247.6065,-91.7913 257.9023,-89.2919 248.295,-84.8252 247.6065,-91.7913"/>
<text text-anchor="middle" x="190" y="-87.8807" font-family="Times,serif" font-size="14.00" fill="#000000">5</text>
</g>
<!-- 5 -->
<g id="node6" class="node">
<title>5</title>
<ellipse fill="none" stroke="#000000" cx="362" cy="-35.0807" rx="18" ry="18"/>
<text text-anchor="middle" x="362" y="-31.3807" font-family="Times,serif" font-size="14.00" fill="#000000">5</text>
</g>
<!-- 3&#45;&gt;5 -->
<g id="edge11" class="edge">
<title>3&#45;&gt;5</title>
<path fill="none" stroke="#000000" d="M116.1547,-60.4842C131.8791,-43.2971 158.8136,-15.3101 172,-10.0807 227.408,11.8929 298.3183,-9.1331 335.8963,-23.7357"/>
<polygon fill="#000000" stroke="#000000" points="334.9877,-27.1433 345.5707,-27.643 337.6091,-20.6527 334.9877,-27.1433"/>
<text text-anchor="middle" x="233" y="-4.8807" font-family="Times,serif" font-size="14.00" fill="#000000">5</text>
</g>
<!-- 1&#45;&gt;4 -->
<g id="edge5" class="edge">
<title>1&#45;&gt;4</title>
<path fill="none" stroke="#000000" d="M205.8809,-46.3483C215.7679,-52.1823 228.7085,-59.935 240,-67.0807 244.0365,-69.6351 248.2891,-72.4015 252.4013,-75.1168"/>
<polygon fill="#000000" stroke="#000000" points="250.7793,-78.2419 261.0411,-80.8775 254.6626,-72.4178 250.7793,-78.2419"/>
<text text-anchor="middle" x="233" y="-70.8807" font-family="Times,serif" font-size="14.00" fill="#000000">1</text>
</g>
<!-- 1&#45;&gt;5 -->
<g id="edge6" class="edge">
<title>1&#45;&gt;5</title>
<path fill="none" stroke="#000000" d="M208.0819,-36.8704C238.019,-36.5223 298.1028,-35.8237 333.7011,-35.4097"/>
<polygon fill="#000000" stroke="#000000" points="333.9437,-38.9072 343.9023,-35.2911 333.8622,-31.9077 333.9437,-38.9072"/>
<text text-anchor="middle" x="276" y="-40.8807" font-family="Times,serif" font-size="14.00" fill="#000000">21</text>
</g>
<!-- 4&#45;&gt;5 -->
<g id="edge7" class="edge">
<title>4&#45;&gt;5</title>
<path fill="none" stroke="#000000" d="M291.3751,-81.069C304.3383,-72.6278 323.1102,-60.4042 338.0428,-50.6807"/>
<polygon fill="#000000" stroke="#000000" points="340.2879,-53.3954 346.758,-45.0057 336.4682,-47.5294 340.2879,-53.3954"/>
<text text-anchor="middle" x="319" y="-69.8807" font-family="Times,serif" font-size="14.00" fill="#000000">14</text>
</g>
</g>
</svg>
