<?xml version="1.0" encoding="UTF-8" standalone="no"?>
<!DOCTYPE svg PUBLIC "-//W3C//DTD SVG 1.1//EN"
 "http://www.w3.org/Graphics/SVG/1.1/DTD/svg11.dtd">
<!-- Generated by graphviz version 2.40.1 (20161225.0304)
 -->
<!-- Title: finite_state_machine Pages: 1 -->
<svg width="330pt" height="360pt"
 viewBox="0.00 0.00 330.03 360.00" xmlns="http://www.w3.org/2000/svg" xmlns:xlink="http://www.w3.org/1999/xlink">
<g id="graph0" class="graph" transform="scale(.9511 .9511) rotate(0) translate(4 374.4983)">
<title>finite_state_machine</title>
<polygon fill="#ffffff" stroke="transparent" points="-4,4 -4,-374.4983 342.9931,-374.4983 342.9931,4 -4,4"/>
<!-- 13 -->
<g id="node1" class="node">
<title>13</title>
<ellipse fill="none" stroke="#000000" cx="319.4948" cy="-212" rx="19.4965" ry="19.4965"/>
<text text-anchor="middle" x="319.4948" y="-208.3" font-family="Times,serif" font-size="14.00" fill="#000000">13</text>
</g>
<!-- 13&#45;&gt;13 -->
<g id="edge1" class="edge">
<title>13&#45;&gt;13</title>
<path fill="none" stroke="#000000" d="M310.6348,-229.7464C308.8266,-239.9757 311.78,-249.4983 319.4948,-249.4983 324.4371,-249.4983 327.4253,-245.5902 328.4594,-240.0919"/>
<polygon fill="#000000" stroke="#000000" points="331.9558,-239.7105 328.3548,-229.7464 324.9562,-239.7813 331.9558,-239.7105"/>
<text text-anchor="middle" x="319.4948" y="-253.2983" font-family="Times,serif" font-size="14.00" fill="#000000">(0,1)</text>
</g>
<!-- 11 -->
<g id="node2" class="node">
<title>11</title>
<ellipse fill="none" stroke="#000000" cx="217.4983" cy="-351" rx="19.4965" ry="19.4965"/>
<text text-anchor="middle" x="217.4983" y="-347.3" font-family="Times,serif" font-size="14.00" fill="#000000">11</text>
</g>
<!-- 11&#45;&gt;13 -->
<g id="edge2" class="edge">
<title>11&#45;&gt;13</title>
<path fill="none" stroke="#000000" d="M232.4209,-338.4353C246.4387,-326.0994 267.3875,-306.237 281.9965,-286 292.3392,-271.673 301.381,-254.0822 307.9933,-239.6465"/>
<polygon fill="#000000" stroke="#000000" points="311.3124,-240.7956 312.1691,-230.2355 304.914,-237.9565 311.3124,-240.7956"/>
<text text-anchor="middle" x="268.4965" y="-319.8" font-family="Times,serif" font-size="14.00" fill="#000000">(0,1)</text>
</g>
<!-- 6 -->
<g id="node3" class="node">
<title>6</title>
<ellipse fill="none" stroke="#000000" cx="117" cy="-295" rx="18" ry="18"/>
<text text-anchor="middle" x="117" y="-291.3" font-family="Times,serif" font-size="14.00" fill="#000000">6</text>
</g>
<!-- 12 -->
<g id="node4" class="node">
<title>12</title>
<ellipse fill="none" stroke="#000000" cx="217.4983" cy="-294" rx="19.4965" ry="19.4965"/>
<text text-anchor="middle" x="217.4983" y="-290.3" font-family="Times,serif" font-size="14.00" fill="#000000">12</text>
</g>
<!-- 6&#45;&gt;12 -->
<g id="edge3" class="edge">
<title>6&#45;&gt;12</title>
<path fill="none" stroke="#000000" d="M135.4329,-294.8166C149.9359,-294.6723 170.4457,-294.4682 187.3331,-294.3002"/>
<polygon fill="#000000" stroke="#000000" points="187.8432,-297.7953 197.8079,-294.1959 187.7735,-290.7957 187.8432,-297.7953"/>
<text text-anchor="middle" x="166.5" y="-297.8" font-family="Times,serif" font-size="14.00" fill="#000000">(1,1)</text>
</g>
<!-- 12&#45;&gt;13 -->
<g id="edge4" class="edge">
<title>12&#45;&gt;13</title>
<path fill="none" stroke="#000000" d="M233.8087,-282.9352C247.0992,-273.7265 266.186,-260.0581 281.9965,-247 287.4402,-242.504 293.1085,-237.436 298.3403,-232.5814"/>
<polygon fill="#000000" stroke="#000000" points="300.747,-235.1227 305.6162,-225.7131 295.9418,-230.0325 300.747,-235.1227"/>
<text text-anchor="middle" x="268.4965" y="-270.8" font-family="Times,serif" font-size="14.00" fill="#000000">(1,1)</text>
</g>
<!-- 5 -->
<g id="node5" class="node">
<title>5</title>
<ellipse fill="none" stroke="#000000" cx="117" cy="-129" rx="18" ry="18"/>
<text text-anchor="middle" x="117" y="-125.3" font-family="Times,serif" font-size="14.00" fill="#000000">5</text>
</g>
<!-- 9 -->
<g id="node6" class="node">
<title>9</title>
<ellipse fill="none" stroke="#000000" cx="217.4983" cy="-185" rx="18" ry="18"/>
<text text-anchor="middle" x="217.4983" y="-181.3" font-family="Times,serif" font-size="14.00" fill="#000000">9</text>
</g>
<!-- 5&#45;&gt;9 -->
<g id="edge5" class="edge">
<title>5&#45;&gt;9</title>
<path fill="none" stroke="#000000" d="M132.8017,-137.7592C145.5486,-144.8298 163.9371,-155.0403 180,-164 184.0686,-166.2694 188.3832,-168.6811 192.5818,-171.0305"/>
<polygon fill="#000000" stroke="#000000" points="191.0119,-174.1628 201.4471,-175.9951 194.4322,-168.0552 191.0119,-174.1628"/>
<text text-anchor="middle" x="166.5" y="-167.8" font-family="Times,serif" font-size="14.00" fill="#000000">(0,1)</text>
</g>
<!-- 10 -->
<g id="node7" class="node">
<title>10</title>
<ellipse fill="none" stroke="#000000" cx="217.4983" cy="-109" rx="19.4965" ry="19.4965"/>
<text text-anchor="middle" x="217.4983" y="-105.3" font-family="Times,serif" font-size="14.00" fill="#000000">10</text>
</g>
<!-- 5&#45;&gt;10 -->
<g id="edge6" class="edge">
<title>5&#45;&gt;10</title>
<path fill="none" stroke="#000000" d="M132.1203,-118.988C138.3234,-115.4342 145.7428,-111.8574 153,-110 164.1815,-107.1382 176.8136,-106.4186 187.9161,-106.5801"/>
<polygon fill="#000000" stroke="#000000" points="187.8688,-110.0808 197.9947,-106.9639 188.1352,-103.0858 187.8688,-110.0808"/>
<text text-anchor="middle" x="166.5" y="-113.8" font-family="Times,serif" font-size="14.00" fill="#000000">(1,1)</text>
</g>
<!-- 9&#45;&gt;13 -->
<g id="edge9" class="edge">
<title>9&#45;&gt;13</title>
<path fill="none" stroke="#000000" d="M235.612,-186.0285C248.7186,-187.1318 266.7348,-189.3943 281.9965,-194 285.6693,-195.1084 289.4325,-196.5319 293.0905,-198.092"/>
<polygon fill="#000000" stroke="#000000" points="291.85,-201.375 302.3933,-202.4182 294.8017,-195.0278 291.85,-201.375"/>
<text text-anchor="middle" x="268.4965" y="-197.8" font-family="Times,serif" font-size="14.00" fill="#000000">(1,1)</text>
</g>
<!-- 10&#45;&gt;13 -->
<g id="edge7" class="edge">
<title>10&#45;&gt;13</title>
<path fill="none" stroke="#000000" d="M232.2535,-121.9272C245.5999,-133.8049 265.6123,-152.0808 281.9965,-169 288.1012,-175.304 294.4715,-182.3946 300.1925,-188.9724"/>
<polygon fill="#000000" stroke="#000000" points="297.8546,-191.6225 307.023,-196.9321 303.1669,-187.0639 297.8546,-191.6225"/>
<text text-anchor="middle" x="268.4965" y="-172.8" font-family="Times,serif" font-size="14.00" fill="#000000">(1,1)</text>
</g>
<!-- 4 -->
<g id="node8" class="node">
<title>4</title>
<ellipse fill="none" stroke="#000000" cx="117" cy="-183" rx="18" ry="18"/>
<text text-anchor="middle" x="117" y="-179.3" font-family="Times,serif" font-size="14.00" fill="#000000">4</text>
</g>
<!-- 4&#45;&gt;9 -->
<g id="edge8" class="edge">
<title>4&#45;&gt;9</title>
<path fill="none" stroke="#000000" d="M135.4329,-183.3668C150.4494,-183.6657 171.9057,-184.0927 189.1129,-184.4351"/>
<polygon fill="#000000" stroke="#000000" points="189.1145,-187.9357 199.1822,-184.6355 189.2538,-180.9371 189.1145,-187.9357"/>
<text text-anchor="middle" x="166.5" y="-187.8" font-family="Times,serif" font-size="14.00" fill="#000000">(1,1)</text>
</g>
<!-- 3 -->
<g id="node9" class="node">
<title>3</title>
<ellipse fill="none" stroke="#000000" cx="117" cy="-72" rx="18" ry="18"/>
<text text-anchor="middle" x="117" y="-68.3" font-family="Times,serif" font-size="14.00" fill="#000000">3</text>
</g>
<!-- 3&#45;&gt;10 -->
<g id="edge10" class="edge">
<title>3&#45;&gt;10</title>
<path fill="none" stroke="#000000" d="M134.8127,-74.7823C147.6729,-77.138 165.2906,-81.088 180,-87 184.097,-88.6466 188.2796,-90.6896 192.2949,-92.8616"/>
<polygon fill="#000000" stroke="#000000" points="190.8326,-96.0592 201.2409,-98.0385 194.3387,-90.0005 190.8326,-96.0592"/>
<text text-anchor="middle" x="166.5" y="-90.8" font-family="Times,serif" font-size="14.00" fill="#000000">(0,1)</text>
</g>
<!-- 7 -->
<g id="node10" class="node">
<title>7</title>
<ellipse fill="none" stroke="#000000" cx="217.4983" cy="-44" rx="18" ry="18"/>
<text text-anchor="middle" x="217.4983" y="-40.3" font-family="Times,serif" font-size="14.00" fill="#000000">7</text>
</g>
<!-- 3&#45;&gt;7 -->
<g id="edge11" class="edge">
<title>3&#45;&gt;7</title>
<path fill="none" stroke="#000000" d="M126.9858,-56.4472C133.3143,-48.0962 142.3143,-38.5962 153,-34 164.9154,-28.8748 179.0706,-30.3324 191.0803,-33.5106"/>
<polygon fill="#000000" stroke="#000000" points="190.3822,-36.9601 200.9717,-36.6242 192.4841,-30.283 190.3822,-36.9601"/>
<text text-anchor="middle" x="166.5" y="-37.8" font-family="Times,serif" font-size="14.00" fill="#000000">(1,1)</text>
</g>
<!-- 7&#45;&gt;13 -->
<g id="edge12" class="edge">
<title>7&#45;&gt;13</title>
<path fill="none" stroke="#000000" d="M230.1563,-57.296C244.1588,-72.5091 266.7531,-98.6088 281.9965,-124 293.3578,-142.9246 303.0298,-165.9197 309.7041,-183.6571"/>
<polygon fill="#000000" stroke="#000000" points="306.5542,-185.2343 313.2775,-193.4226 313.1279,-182.8288 306.5542,-185.2343"/>
<text text-anchor="middle" x="268.4965" y="-127.8" font-family="Times,serif" font-size="14.00" fill="#000000">(1,1)</text>
</g>
<!-- 0 -->
<g id="node11" class="node">
<title>0</title>
<ellipse fill="none" stroke="#000000" cx="18" cy="-152" rx="18" ry="18"/>
<text text-anchor="middle" x="18" y="-148.3" font-family="Times,serif" font-size="14.00" fill="#000000">0</text>
</g>
<!-- 0&#45;&gt;6 -->
<g id="edge14" class="edge">
<title>0&#45;&gt;6</title>
<path fill="none" stroke="#000000" d="M23.9288,-168.9961C30.0835,-185.4088 40.6731,-210.5657 54,-230 65.7762,-247.173 82.2391,-263.982 95.3825,-276.2033"/>
<polygon fill="#000000" stroke="#000000" points="93.3101,-279.0492 103.0656,-283.1821 98.0167,-273.8676 93.3101,-279.0492"/>
<text text-anchor="middle" x="67.5" y="-263.8" font-family="Times,serif" font-size="14.00" fill="#000000">(1,1)</text>
</g>
<!-- 0&#45;&gt;5 -->
<g id="edge15" class="edge">
<title>0&#45;&gt;5</title>
<path fill="none" stroke="#000000" d="M35.5163,-146.879C41.3715,-145.2355 47.9472,-143.4634 54,-142 65.5167,-139.2156 78.308,-136.5063 89.3394,-134.2881"/>
<polygon fill="#000000" stroke="#000000" points="90.1453,-137.6966 99.2777,-132.3254 88.789,-130.8292 90.1453,-137.6966"/>
<text text-anchor="middle" x="67.5" y="-145.8" font-family="Times,serif" font-size="14.00" fill="#000000">(1,1)</text>
</g>
<!-- 0&#45;&gt;4 -->
<g id="edge16" class="edge">
<title>0&#45;&gt;4</title>
<path fill="none" stroke="#000000" d="M35.2445,-157.3998C50.3415,-162.1271 72.5287,-169.0746 89.9815,-174.5397"/>
<polygon fill="#000000" stroke="#000000" points="89.032,-177.9099 99.621,-177.5581 91.1238,-171.2297 89.032,-177.9099"/>
<text text-anchor="middle" x="67.5" y="-174.8" font-family="Times,serif" font-size="14.00" fill="#000000">(1,1)</text>
</g>
<!-- 0&#45;&gt;3 -->
<g id="edge17" class="edge">
<title>0&#45;&gt;3</title>
<path fill="none" stroke="#000000" d="M30.5553,-138.8735C37.2787,-132.0851 45.8373,-123.8167 54,-117 66.414,-106.633 81.0766,-96.0698 93.1314,-87.7852"/>
<polygon fill="#000000" stroke="#000000" points="95.4477,-90.4435 101.761,-81.9351 91.5197,-84.6494 95.4477,-90.4435"/>
<text text-anchor="middle" x="67.5" y="-120.8" font-family="Times,serif" font-size="14.00" fill="#000000">(1,1)</text>
</g>
<!-- 2 -->
<g id="node12" class="node">
<title>2</title>
<ellipse fill="none" stroke="#000000" cx="117" cy="-18" rx="18" ry="18"/>
<text text-anchor="middle" x="117" y="-14.3" font-family="Times,serif" font-size="14.00" fill="#000000">2</text>
</g>
<!-- 0&#45;&gt;2 -->
<g id="edge13" class="edge">
<title>0&#45;&gt;2</title>
<path fill="none" stroke="#000000" d="M24.0878,-134.9251C30.2209,-119.0441 40.674,-95.1681 54,-77 65.4869,-61.3392 81.4911,-46.4129 94.494,-35.4916"/>
<polygon fill="#000000" stroke="#000000" points="96.9997,-37.9639 102.5277,-28.9256 92.5699,-32.5439 96.9997,-37.9639"/>
<text text-anchor="middle" x="67.5" y="-80.8" font-family="Times,serif" font-size="14.00" fill="#000000">(0,1)</text>
</g>
<!-- 1 -->
<g id="node13" class="node">
<title>1</title>
<ellipse fill="none" stroke="#000000" cx="117" cy="-237" rx="18" ry="18"/>
<text text-anchor="middle" x="117" y="-233.3" font-family="Times,serif" font-size="14.00" fill="#000000">1</text>
</g>
<!-- 0&#45;&gt;1 -->
<g id="edge18" class="edge">
<title>0&#45;&gt;1</title>
<path fill="none" stroke="#000000" d="M30.126,-165.9187C36.8685,-173.3636 45.578,-182.5131 54,-190 66.4742,-201.0892 81.4099,-212.3109 93.6074,-221.0072"/>
<polygon fill="#000000" stroke="#000000" points="91.7363,-223.97 101.9308,-226.855 95.7605,-218.2423 91.7363,-223.97"/>
<text text-anchor="middle" x="67.5" y="-214.8" font-family="Times,serif" font-size="14.00" fill="#000000">(1,1)</text>
</g>
<!-- 1&#45;&gt;9 -->
<g id="edge19" class="edge">
<title>1&#45;&gt;9</title>
<path fill="none" stroke="#000000" d="M133.1468,-228.6453C149.117,-220.3819 173.789,-207.6161 192.332,-198.0216"/>
<polygon fill="#000000" stroke="#000000" points="194.1185,-201.038 201.3916,-193.334 190.9016,-194.821 194.1185,-201.038"/>
<text text-anchor="middle" x="166.5" y="-220.8" font-family="Times,serif" font-size="14.00" fill="#000000">(0,1)</text>
</g>
<!-- 8 -->
<g id="node14" class="node">
<title>8</title>
<ellipse fill="none" stroke="#000000" cx="217.4983" cy="-239" rx="18" ry="18"/>
<text text-anchor="middle" x="217.4983" y="-235.3" font-family="Times,serif" font-size="14.00" fill="#000000">8</text>
</g>
<!-- 1&#45;&gt;8 -->
<g id="edge20" class="edge">
<title>1&#45;&gt;8</title>
<path fill="none" stroke="#000000" d="M135.3059,-238.214C140.9749,-238.537 147.2434,-238.8402 153,-239 164.8754,-239.3296 177.9854,-239.386 189.2672,-239.3391"/>
<polygon fill="#000000" stroke="#000000" points="189.4483,-242.838 199.4235,-239.2679 189.3992,-235.8382 189.4483,-242.838"/>
<text text-anchor="middle" x="166.5" y="-242.8" font-family="Times,serif" font-size="14.00" fill="#000000">(1,1)</text>
</g>
<!-- 8&#45;&gt;13 -->
<g id="edge21" class="edge">
<title>8&#45;&gt;13</title>
<path fill="none" stroke="#000000" d="M235.2647,-234.297C250.5324,-230.2554 272.8385,-224.3506 290.6608,-219.6328"/>
<polygon fill="#000000" stroke="#000000" points="291.7777,-222.9578 300.5491,-217.0152 289.9864,-216.1908 291.7777,-222.9578"/>
<text text-anchor="middle" x="268.4965" y="-231.8" font-family="Times,serif" font-size="14.00" fill="#000000">(1,1)</text>
</g>
</g>
</svg>
