<?xml version="1.0" encoding="UTF-8" standalone="no"?>
<!DOCTYPE svg PUBLIC "-//W3C//DTD SVG 1.1//EN"
 "http://www.w3.org/Graphics/SVG/1.1/DTD/svg11.dtd">
<!-- Generated by graphviz version 2.40.1 (20161225.0304)
 -->
<!-- Title: finite_state_machine Pages: 1 -->
<svg width="576pt" height="203pt"
 viewBox="0.00 0.00 576.00 202.84" xmlns="http://www.w3.org/2000/svg" xmlns:xlink="http://www.w3.org/1999/xlink">
<g id="graph0" class="graph" transform="scale(.9568 .9568) rotate(0) translate(4 208)">
<title>finite_state_machine</title>
<polygon fill="#ffffff" stroke="transparent" points="-4,4 -4,-208 598,-208 598,4 -4,4"/>
<!-- 2 -->
<g id="node1" class="node">
<title>2</title>
<ellipse fill="none" stroke="#000000" cx="242" cy="-72" rx="18" ry="18"/>
<text text-anchor="middle" x="242" y="-68.3" font-family="Times,serif" font-size="14.00" fill="#000000">2</text>
</g>
<!-- 3 -->
<g id="node2" class="node">
<title>3</title>
<ellipse fill="none" stroke="#000000" cx="348" cy="-18" rx="18" ry="18"/>
<text text-anchor="middle" x="348" y="-14.3" font-family="Times,serif" font-size="14.00" fill="#000000">3</text>
</g>
<!-- 2&#45;&gt;3 -->
<g id="edge1" class="edge">
<title>2&#45;&gt;3</title>
<path fill="none" stroke="#000000" d="M255.2363,-59.5488C261.7245,-53.9303 269.8776,-47.5494 278,-43 291.3681,-35.5124 307.3939,-29.5925 320.7364,-25.3968"/>
<polygon fill="#000000" stroke="#000000" points="321.7509,-28.7466 330.328,-22.527 319.7443,-22.0404 321.7509,-28.7466"/>
<text text-anchor="middle" x="295" y="-46.8" font-family="Times,serif" font-size="14.00" fill="#000000">(0,4)</text>
</g>
<!-- 5 -->
<g id="node3" class="node">
<title>5</title>
<ellipse fill="none" stroke="#000000" cx="348" cy="-135" rx="18" ry="18"/>
<text text-anchor="middle" x="348" y="-131.3" font-family="Times,serif" font-size="14.00" fill="#000000">5</text>
</g>
<!-- 2&#45;&gt;5 -->
<g id="edge2" class="edge">
<title>2&#45;&gt;5</title>
<path fill="none" stroke="#000000" d="M258.6848,-78.8297C273.2312,-85.0781 294.6571,-95.0024 312,-106 316.9139,-109.116 321.9319,-112.793 326.6009,-116.4634"/>
<polygon fill="#000000" stroke="#000000" points="324.5713,-119.3248 334.5303,-122.9401 328.9995,-113.9034 324.5713,-119.3248"/>
<text text-anchor="middle" x="295" y="-109.8" font-family="Times,serif" font-size="14.00" fill="#000000">(8,8)</text>
</g>
<!-- 6 -->
<g id="node4" class="node">
<title>6</title>
<ellipse fill="none" stroke="#000000" cx="462" cy="-77" rx="18" ry="18"/>
<text text-anchor="middle" x="462" y="-73.3" font-family="Times,serif" font-size="14.00" fill="#000000">6</text>
</g>
<!-- 3&#45;&gt;6 -->
<g id="edge8" class="edge">
<title>3&#45;&gt;6</title>
<path fill="none" stroke="#000000" d="M365.7598,-21.6479C381.7375,-25.4266 405.4779,-32.3001 424,-43 430.3862,-46.6892 436.6404,-51.5781 442.1721,-56.4952"/>
<polygon fill="#000000" stroke="#000000" points="440.0135,-59.2704 449.691,-63.583 444.8151,-54.1767 440.0135,-59.2704"/>
<text text-anchor="middle" x="404" y="-46.8" font-family="Times,serif" font-size="14.00" fill="#000000">(13,30)</text>
</g>
<!-- 5&#45;&gt;6 -->
<g id="edge3" class="edge">
<title>5&#45;&gt;6</title>
<path fill="none" stroke="#000000" d="M361.2628,-122.5958C367.7569,-116.9877 375.9072,-110.6019 384,-106 399.9184,-96.9482 419.1948,-89.7508 434.6018,-84.7903"/>
<polygon fill="#000000" stroke="#000000" points="436.0371,-88.0104 444.5612,-81.7183 433.9738,-81.3214 436.0371,-88.0104"/>
<text text-anchor="middle" x="404" y="-109.8" font-family="Times,serif" font-size="14.00" fill="#000000">(0,15)</text>
</g>
<!-- 7 -->
<g id="node5" class="node">
<title>7</title>
<ellipse fill="none" stroke="#000000" cx="576" cy="-135" rx="18" ry="18"/>
<text text-anchor="middle" x="576" y="-131.3" font-family="Times,serif" font-size="14.00" fill="#000000">7</text>
</g>
<!-- 5&#45;&gt;7 -->
<g id="edge4" class="edge">
<title>5&#45;&gt;7</title>
<path fill="none" stroke="#000000" d="M366.2728,-135C405.9768,-135 500.3534,-135 547.7772,-135"/>
<polygon fill="#000000" stroke="#000000" points="547.9567,-138.5001 557.9567,-135 547.9566,-131.5001 547.9567,-138.5001"/>
<text text-anchor="middle" x="462" y="-138.8" font-family="Times,serif" font-size="14.00" fill="#000000">(10,10)</text>
</g>
<!-- 6&#45;&gt;2 -->
<g id="edge10" class="edge">
<title>6&#45;&gt;2</title>
<path fill="none" stroke="#000000" d="M443.7477,-76.5852C405.3343,-75.7121 315.9215,-73.68 270.1275,-72.6393"/>
<polygon fill="#000000" stroke="#000000" points="270.0805,-69.1374 260.0035,-72.4092 269.9214,-76.1356 270.0805,-69.1374"/>
<text text-anchor="middle" x="348" y="-77.8" font-family="Times,serif" font-size="14.00" fill="#000000">(3,6)</text>
</g>
<!-- 6&#45;&gt;7 -->
<g id="edge9" class="edge">
<title>6&#45;&gt;7</title>
<path fill="none" stroke="#000000" d="M479.4388,-81.7183C495.7295,-86.5276 520.4082,-94.8594 540,-106 545.058,-108.8762 550.1385,-112.4492 554.823,-116.0937"/>
<polygon fill="#000000" stroke="#000000" points="552.7886,-118.952 562.7372,-122.5958 557.2323,-113.5433 552.7886,-118.952"/>
<text text-anchor="middle" x="520" y="-109.8" font-family="Times,serif" font-size="14.00" fill="#000000">(10,10)</text>
</g>
<!-- 0 -->
<g id="node6" class="node">
<title>0</title>
<ellipse fill="none" stroke="#000000" cx="18" cy="-72" rx="18" ry="18"/>
<text text-anchor="middle" x="18" y="-68.3" font-family="Times,serif" font-size="14.00" fill="#000000">0</text>
</g>
<!-- 0&#45;&gt;2 -->
<g id="edge5" class="edge">
<title>0&#45;&gt;2</title>
<path fill="none" stroke="#000000" d="M36.3309,-72C75.3964,-72 167.0781,-72 213.7013,-72"/>
<polygon fill="#000000" stroke="#000000" points="213.73,-75.5001 223.73,-72 213.73,-68.5001 213.73,-75.5001"/>
<text text-anchor="middle" x="130" y="-75.8" font-family="Times,serif" font-size="14.00" fill="#000000">(5,5)</text>
</g>
<!-- 0&#45;&gt;3 -->
<g id="edge7" class="edge">
<title>0&#45;&gt;3</title>
<path fill="none" stroke="#000000" d="M35.8711,-68.0804C77.8912,-59.0006 186.3377,-36.3598 278,-24 291.6934,-22.1536 306.9747,-20.7664 319.7574,-19.7936"/>
<polygon fill="#000000" stroke="#000000" points="320.0931,-23.2786 329.8174,-19.0729 319.5928,-16.2965 320.0931,-23.2786"/>
<text text-anchor="middle" x="186" y="-44.8" font-family="Times,serif" font-size="14.00" fill="#000000">(13,15)</text>
</g>
<!-- 1 -->
<g id="node7" class="node">
<title>1</title>
<ellipse fill="none" stroke="#000000" cx="130" cy="-129" rx="18" ry="18"/>
<text text-anchor="middle" x="130" y="-125.3" font-family="Times,serif" font-size="14.00" fill="#000000">1</text>
</g>
<!-- 0&#45;&gt;1 -->
<g id="edge6" class="edge">
<title>0&#45;&gt;1</title>
<path fill="none" stroke="#000000" d="M34.0469,-80.1667C52.4881,-89.552 82.9908,-105.0757 104.6512,-116.0993"/>
<polygon fill="#000000" stroke="#000000" points="103.1189,-119.2466 113.6187,-120.6631 106.294,-113.0081 103.1189,-119.2466"/>
<text text-anchor="middle" x="74" y="-113.8" font-family="Times,serif" font-size="14.00" fill="#000000">(10,10)</text>
</g>
<!-- 1&#45;&gt;2 -->
<g id="edge12" class="edge">
<title>1&#45;&gt;2</title>
<path fill="none" stroke="#000000" d="M145.1154,-118.639C151.4411,-114.4897 158.9499,-109.8021 166,-106 182.0223,-97.3591 200.6731,-88.9916 215.4887,-82.7197"/>
<polygon fill="#000000" stroke="#000000" points="217.1687,-85.8114 225.0535,-78.7347 214.4766,-79.3498 217.1687,-85.8114"/>
<text text-anchor="middle" x="186" y="-109.8" font-family="Times,serif" font-size="14.00" fill="#000000">(0,4)</text>
</g>
<!-- 1&#45;&gt;5 -->
<g id="edge11" class="edge">
<title>1&#45;&gt;5</title>
<path fill="none" stroke="#000000" d="M148.2116,-129.5012C186.296,-130.5494 274.5745,-132.9791 319.9545,-134.2281"/>
<polygon fill="#000000" stroke="#000000" points="319.901,-137.7279 329.9936,-134.5044 320.0937,-130.7305 319.901,-137.7279"/>
<text text-anchor="middle" x="242" y="-135.8" font-family="Times,serif" font-size="14.00" fill="#000000">(2,15)</text>
</g>
<!-- 4 -->
<g id="node8" class="node">
<title>4</title>
<ellipse fill="none" stroke="#000000" cx="242" cy="-186" rx="18" ry="18"/>
<text text-anchor="middle" x="242" y="-182.3" font-family="Times,serif" font-size="14.00" fill="#000000">4</text>
</g>
<!-- 1&#45;&gt;4 -->
<g id="edge13" class="edge">
<title>1&#45;&gt;4</title>
<path fill="none" stroke="#000000" d="M145.6715,-137.9476C151.9505,-141.4692 159.278,-145.4997 166,-149 182.6566,-157.6733 201.6513,-166.9209 216.4846,-174.0014"/>
<polygon fill="#000000" stroke="#000000" points="215.0302,-177.1853 225.5648,-178.3135 218.0331,-170.8621 215.0302,-177.1853"/>
<text text-anchor="middle" x="186" y="-171.8" font-family="Times,serif" font-size="14.00" fill="#000000">(8,9)</text>
</g>
<!-- 4&#45;&gt;5 -->
<g id="edge14" class="edge">
<title>4&#45;&gt;5</title>
<path fill="none" stroke="#000000" d="M258.5625,-178.0313C275.6759,-169.7974 302.6131,-156.8371 322.4565,-147.2898"/>
<polygon fill="#000000" stroke="#000000" points="324.06,-150.4024 331.5538,-142.9128 321.0251,-144.0945 324.06,-150.4024"/>
<text text-anchor="middle" x="295" y="-171.8" font-family="Times,serif" font-size="14.00" fill="#000000">(0,15)</text>
</g>
<!-- 4&#45;&gt;7 -->
<g id="edge15" class="edge">
<title>4&#45;&gt;7</title>
<path fill="none" stroke="#000000" d="M260.1662,-186.0961C274.318,-186.0224 294.4433,-185.5922 312,-184 414.1013,-174.7405 440.9678,-175.515 540,-149 543.2389,-148.1328 546.5859,-147.0703 549.8752,-145.9219"/>
<polygon fill="#000000" stroke="#000000" points="551.2827,-149.1318 559.4043,-142.3281 548.8125,-142.5821 551.2827,-149.1318"/>
<text text-anchor="middle" x="404" y="-180.8" font-family="Times,serif" font-size="14.00" fill="#000000">(8,10)</text>
</g>
</g>
</svg>
