<?xml version="1.0" encoding="UTF-8" standalone="no"?>
<!DOCTYPE svg PUBLIC "-//W3C//DTD SVG 1.1//EN"
 "http://www.w3.org/Graphics/SVG/1.1/DTD/svg11.dtd">
<!-- Generated by graphviz version 2.40.1 (20161225.0304)
 -->
<!-- Title: finite_state_machine Pages: 1 -->
<svg width="484pt" height="155pt"
 viewBox="0.00 0.00 484.00 155.00" xmlns="http://www.w3.org/2000/svg" xmlns:xlink="http://www.w3.org/1999/xlink">
<g id="graph0" class="graph" transform="scale(1 1) rotate(0) translate(4 151)">
<title>finite_state_machine</title>
<polygon fill="#ffffff" stroke="transparent" points="-4,4 -4,-151 480,-151 480,4 -4,4"/>
<!-- 4 -->
<g id="node1" class="node">
<title>4</title>
<ellipse fill="none" stroke="#000000" cx="344" cy="-77" rx="18" ry="18"/>
<text text-anchor="middle" x="344" y="-73.3" font-family="Times,serif" font-size="14.00" fill="#000000">4</text>
</g>
<!-- 5 -->
<g id="node2" class="node">
<title>5</title>
<ellipse fill="none" stroke="#000000" cx="458" cy="-108" rx="18" ry="18"/>
<text text-anchor="middle" x="458" y="-104.3" font-family="Times,serif" font-size="14.00" fill="#000000">5</text>
</g>
<!-- 4&#45;&gt;5 -->
<g id="edge1" class="edge">
<title>4&#45;&gt;5</title>
<path fill="none" stroke="#000000" d="M361.8125,-81.8438C380.2175,-86.8486 409.1877,-94.7265 430.5287,-100.5297"/>
<polygon fill="#000000" stroke="#000000" points="429.7446,-103.9435 440.3126,-103.1903 431.5814,-97.1888 429.7446,-103.9435"/>
<text text-anchor="middle" x="402" y="-100.8" font-family="Times,serif" font-size="14.00" fill="#000000">(14,14)</text>
</g>
<!-- 2 -->
<g id="node3" class="node">
<title>2</title>
<ellipse fill="none" stroke="#000000" cx="236" cy="-18" rx="18" ry="18"/>
<text text-anchor="middle" x="236" y="-14.3" font-family="Times,serif" font-size="14.00" fill="#000000">2</text>
</g>
<!-- 2&#45;&gt;4 -->
<g id="edge2" class="edge">
<title>2&#45;&gt;4</title>
<path fill="none" stroke="#000000" d="M253.508,-22.2205C268.1893,-26.2241 289.3623,-33.1067 306,-43 312.3392,-46.7695 318.5769,-51.6864 324.1079,-56.6048"/>
<polygon fill="#000000" stroke="#000000" points="321.951,-59.3808 331.6351,-63.6782 326.7446,-54.2796 321.951,-59.3808"/>
<text text-anchor="middle" x="289" y="-46.8" font-family="Times,serif" font-size="14.00" fill="#000000">(9,12)</text>
</g>
<!-- 0 -->
<g id="node4" class="node">
<title>0</title>
<ellipse fill="none" stroke="#000000" cx="18" cy="-72" rx="18" ry="18"/>
<text text-anchor="middle" x="18" y="-68.3" font-family="Times,serif" font-size="14.00" fill="#000000">0</text>
</g>
<!-- 0&#45;&gt;2 -->
<g id="edge3" class="edge">
<title>0&#45;&gt;2</title>
<path fill="none" stroke="#000000" d="M33.7199,-63.0658C51.9316,-53.1756 83.1404,-37.6259 112,-30 144.0194,-21.5392 182.0987,-18.9066 207.5327,-18.1571"/>
<polygon fill="#000000" stroke="#000000" points="207.6821,-21.6548 217.6042,-17.9397 207.531,-14.6565 207.6821,-21.6548"/>
<text text-anchor="middle" x="130" y="-33.8" font-family="Times,serif" font-size="14.00" fill="#000000">(8,8)</text>
</g>
<!-- 1 -->
<g id="node5" class="node">
<title>1</title>
<ellipse fill="none" stroke="#000000" cx="236" cy="-129" rx="18" ry="18"/>
<text text-anchor="middle" x="236" y="-125.3" font-family="Times,serif" font-size="14.00" fill="#000000">1</text>
</g>
<!-- 0&#45;&gt;1 -->
<g id="edge4" class="edge">
<title>0&#45;&gt;1</title>
<path fill="none" stroke="#000000" d="M33.7664,-81.3031C39.933,-84.6783 47.1574,-88.3171 54,-91 101.9765,-109.8111 115.3731,-111.3814 166,-121 179.6129,-123.5863 194.885,-125.4502 207.6823,-126.7246"/>
<polygon fill="#000000" stroke="#000000" points="207.4787,-130.2206 217.7593,-127.6593 208.1253,-123.2506 207.4787,-130.2206"/>
<text text-anchor="middle" x="130" y="-120.8" font-family="Times,serif" font-size="14.00" fill="#000000">(7,7)</text>
</g>
<!-- 3 -->
<g id="node6" class="node">
<title>3</title>
<ellipse fill="none" stroke="#000000" cx="130" cy="-72" rx="18" ry="18"/>
<text text-anchor="middle" x="130" y="-68.3" font-family="Times,serif" font-size="14.00" fill="#000000">3</text>
</g>
<!-- 0&#45;&gt;3 -->
<g id="edge5" class="edge">
<title>0&#45;&gt;3</title>
<path fill="none" stroke="#000000" d="M36.4945,-72C54.2718,-72 81.3816,-72 101.8413,-72"/>
<polygon fill="#000000" stroke="#000000" points="101.8497,-75.5001 111.8496,-72 101.8496,-68.5001 101.8497,-75.5001"/>
<text text-anchor="middle" x="74" y="-75.8" font-family="Times,serif" font-size="14.00" fill="#000000">(10,10)</text>
</g>
<!-- 1&#45;&gt;4 -->
<g id="edge9" class="edge">
<title>1&#45;&gt;4</title>
<path fill="none" stroke="#000000" d="M251.0447,-118.5048C257.3595,-114.335 264.8794,-109.6684 272,-106 286.5561,-98.5011 303.5148,-91.5875 317.3161,-86.393"/>
<polygon fill="#000000" stroke="#000000" points="318.5513,-89.668 326.728,-82.9307 316.1345,-83.0984 318.5513,-89.668"/>
<text text-anchor="middle" x="289" y="-109.8" font-family="Times,serif" font-size="14.00" fill="#000000">(0,1)</text>
</g>
<!-- 1&#45;&gt;5 -->
<g id="edge10" class="edge">
<title>1&#45;&gt;5</title>
<path fill="none" stroke="#000000" d="M254.0505,-128.6299C287.3912,-127.749 360.8144,-124.8861 422,-116 424.7562,-115.5997 427.6151,-115.1045 430.4623,-114.5581"/>
<polygon fill="#000000" stroke="#000000" points="431.4581,-117.9251 440.5186,-112.4335 430.0111,-111.0763 431.4581,-117.9251"/>
<text text-anchor="middle" x="344" y="-128.8" font-family="Times,serif" font-size="14.00" fill="#000000">(11,21)</text>
</g>
<!-- 3&#45;&gt;4 -->
<g id="edge6" class="edge">
<title>3&#45;&gt;4</title>
<path fill="none" stroke="#000000" d="M148.2455,-72.4263C185.5965,-73.299 271.0024,-75.2944 315.6404,-76.3374"/>
<polygon fill="#000000" stroke="#000000" points="315.7216,-79.8401 325.8007,-76.5748 315.8852,-72.8421 315.7216,-79.8401"/>
<text text-anchor="middle" x="236" y="-77.8" font-family="Times,serif" font-size="14.00" fill="#000000">(5,5)</text>
</g>
<!-- 3&#45;&gt;2 -->
<g id="edge7" class="edge">
<title>3&#45;&gt;2</title>
<path fill="none" stroke="#000000" d="M143.2363,-59.5488C149.7245,-53.9303 157.8776,-47.5494 166,-43 179.3681,-35.5124 195.3939,-29.5925 208.7364,-25.3968"/>
<polygon fill="#000000" stroke="#000000" points="209.7509,-28.7466 218.328,-22.527 207.7443,-22.0404 209.7509,-28.7466"/>
<text text-anchor="middle" x="183" y="-46.8" font-family="Times,serif" font-size="14.00" fill="#000000">(1,2)</text>
</g>
<!-- 3&#45;&gt;1 -->
<g id="edge8" class="edge">
<title>3&#45;&gt;1</title>
<path fill="none" stroke="#000000" d="M146.6839,-79.438C161.0433,-85.9962 182.1987,-96.0348 200,-106 204.0407,-108.262 208.2519,-110.7888 212.31,-113.3166"/>
<polygon fill="#000000" stroke="#000000" points="210.5111,-116.3206 220.8237,-118.7498 214.2768,-110.4198 210.5111,-116.3206"/>
<text text-anchor="middle" x="183" y="-109.8" font-family="Times,serif" font-size="14.00" fill="#000000">(4,11)</text>
</g>
</g>
</svg>
