<?xml version="1.0" encoding="UTF-8" standalone="no"?>
<!DOCTYPE svg PUBLIC "-//W3C//DTD SVG 1.1//EN"
 "http://www.w3.org/Graphics/SVG/1.1/DTD/svg11.dtd">
<!-- Generated by graphviz version 2.40.1 (20161225.0304)
 -->
<!-- Title: finite_state_machine Pages: 1 -->
<svg width="576pt" height="136pt"
 viewBox="0.00 0.00 576.00 135.82" xmlns="http://www.w3.org/2000/svg" xmlns:xlink="http://www.w3.org/1999/xlink">
<g id="graph0" class="graph" transform="scale(.9914 .9914) rotate(0) translate(4 133)">
<title>finite_state_machine</title>
<polygon fill="#ffffff" stroke="transparent" points="-4,4 -4,-133 577,-133 577,4 -4,4"/>
<!-- 1 -->
<g id="node1" class="node">
<title>1</title>
<ellipse fill="none" stroke="#000000" cx="469" cy="-111" rx="18" ry="18"/>
<text text-anchor="middle" x="469" y="-107.3" font-family="Times,serif" font-size="14.00" fill="#000000">1</text>
</g>
<!-- 6 -->
<g id="node2" class="node">
<title>6</title>
<ellipse fill="none" stroke="#000000" cx="555" cy="-60" rx="18" ry="18"/>
<text text-anchor="middle" x="555" y="-56.3" font-family="Times,serif" font-size="14.00" fill="#000000">6</text>
</g>
<!-- 1&#45;&gt;6 -->
<g id="edge1" class="edge">
<title>1&#45;&gt;6</title>
<path fill="none" stroke="#000000" d="M484.7737,-101.6458C497.6239,-94.0254 515.9848,-83.1369 530.7097,-74.4047"/>
<polygon fill="#000000" stroke="#000000" points="532.5103,-77.4062 539.3263,-69.2949 528.9397,-71.3852 532.5103,-77.4062"/>
<text text-anchor="middle" x="512" y="-91.8" font-family="Times,serif" font-size="14.00" fill="#000000">66</text>
</g>
<!-- 2 -->
<g id="node3" class="node">
<title>2</title>
<ellipse fill="none" stroke="#000000" cx="376" cy="-68" rx="18" ry="18"/>
<text text-anchor="middle" x="376" y="-64.3" font-family="Times,serif" font-size="14.00" fill="#000000">2</text>
</g>
<!-- 2&#45;&gt;1 -->
<g id="edge2" class="edge">
<title>2&#45;&gt;1</title>
<path fill="none" stroke="#000000" d="M392.6265,-75.6875C406.6449,-82.1691 426.9448,-91.5551 443.0928,-99.0214"/>
<polygon fill="#000000" stroke="#000000" points="441.9718,-102.3591 452.5174,-103.379 444.9096,-96.0053 441.9718,-102.3591"/>
<text text-anchor="middle" x="422.5" y="-96.8" font-family="Times,serif" font-size="14.00" fill="#000000">66</text>
</g>
<!-- 2&#45;&gt;6 -->
<g id="edge3" class="edge">
<title>2&#45;&gt;6</title>
<path fill="none" stroke="#000000" d="M394.1485,-67.1889C425.3742,-65.7933 489.4816,-62.9282 526.6436,-61.2673"/>
<polygon fill="#000000" stroke="#000000" points="526.9697,-64.7563 536.8034,-60.8133 526.6571,-57.7633 526.9697,-64.7563"/>
<text text-anchor="middle" x="469" y="-67.8" font-family="Times,serif" font-size="14.00" fill="#000000">71</text>
</g>
<!-- 4 -->
<g id="node4" class="node">
<title>4</title>
<ellipse fill="none" stroke="#000000" cx="197" cy="-71" rx="18" ry="18"/>
<text text-anchor="middle" x="197" y="-67.3" font-family="Times,serif" font-size="14.00" fill="#000000">4</text>
</g>
<!-- 4&#45;&gt;2 -->
<g id="edge4" class="edge">
<title>4&#45;&gt;2</title>
<path fill="none" stroke="#000000" d="M215.1485,-70.6958C246.3742,-70.1725 310.4816,-69.0981 347.6436,-68.4752"/>
<polygon fill="#000000" stroke="#000000" points="347.8635,-71.9722 357.8034,-68.305 347.7461,-64.9731 347.8635,-71.9722"/>
<text text-anchor="middle" x="290" y="-72.8" font-family="Times,serif" font-size="14.00" fill="#000000">66</text>
</g>
<!-- 5 -->
<g id="node5" class="node">
<title>5</title>
<ellipse fill="none" stroke="#000000" cx="290" cy="-18" rx="18" ry="18"/>
<text text-anchor="middle" x="290" y="-14.3" font-family="Times,serif" font-size="14.00" fill="#000000">5</text>
</g>
<!-- 4&#45;&gt;5 -->
<g id="edge5" class="edge">
<title>4&#45;&gt;5</title>
<path fill="none" stroke="#000000" d="M212.2406,-60.8626C218.5855,-56.7475 226.0748,-52.0251 233,-48 243.2575,-42.0381 254.8028,-35.8652 264.8067,-30.6802"/>
<polygon fill="#000000" stroke="#000000" points="266.5327,-33.7286 273.8336,-26.0508 263.3383,-27.4999 266.5327,-33.7286"/>
<text text-anchor="middle" x="243.5" y="-51.8" font-family="Times,serif" font-size="14.00" fill="#000000">271</text>
</g>
<!-- 5&#45;&gt;6 -->
<g id="edge11" class="edge">
<title>5&#45;&gt;6</title>
<path fill="none" stroke="#000000" d="M307.7989,-20.821C352.9486,-27.9768 472.2221,-46.8805 526.897,-55.5459"/>
<polygon fill="#000000" stroke="#000000" points="526.505,-59.0274 536.9296,-57.136 527.6008,-52.1137 526.505,-59.0274"/>
<text text-anchor="middle" x="422.5" y="-43.8" font-family="Times,serif" font-size="14.00" fill="#000000">271</text>
</g>
<!-- 5&#45;&gt;2 -->
<g id="edge10" class="edge">
<title>5&#45;&gt;2</title>
<path fill="none" stroke="#000000" d="M305.7737,-27.1708C318.5027,-34.5713 336.6389,-45.1156 351.2919,-53.6349"/>
<polygon fill="#000000" stroke="#000000" points="349.922,-56.8869 360.3263,-58.8874 353.4404,-50.8353 349.922,-56.8869"/>
<text text-anchor="middle" x="333" y="-48.8" font-family="Times,serif" font-size="14.00" fill="#000000">71</text>
</g>
<!-- 3 -->
<g id="node6" class="node">
<title>3</title>
<ellipse fill="none" stroke="#000000" cx="111" cy="-23" rx="18" ry="18"/>
<text text-anchor="middle" x="111" y="-19.3" font-family="Times,serif" font-size="14.00" fill="#000000">3</text>
</g>
<!-- 3&#45;&gt;4 -->
<g id="edge6" class="edge">
<title>3&#45;&gt;4</title>
<path fill="none" stroke="#000000" d="M127.4392,-30.6823C137.3043,-35.4244 150.0265,-41.7739 161,-48 165.0277,-50.2852 169.2321,-52.8239 173.2876,-55.3564"/>
<polygon fill="#000000" stroke="#000000" points="171.4886,-58.3603 181.8011,-60.79 175.2546,-52.4597 171.4886,-58.3603"/>
<text text-anchor="middle" x="154" y="-51.8" font-family="Times,serif" font-size="14.00" fill="#000000">58</text>
</g>
<!-- 3&#45;&gt;5 -->
<g id="edge7" class="edge">
<title>3&#45;&gt;5</title>
<path fill="none" stroke="#000000" d="M129.1485,-22.4931C160.3742,-21.6208 224.4816,-19.8301 261.6436,-18.7921"/>
<polygon fill="#000000" stroke="#000000" points="261.9051,-22.2862 271.8034,-18.5083 261.7096,-15.289 261.9051,-22.2862"/>
<text text-anchor="middle" x="197" y="-24.8" font-family="Times,serif" font-size="14.00" fill="#000000">71</text>
</g>
<!-- 0 -->
<g id="node7" class="node">
<title>0</title>
<ellipse fill="none" stroke="#000000" cx="18" cy="-50" rx="18" ry="18"/>
<text text-anchor="middle" x="18" y="-46.3" font-family="Times,serif" font-size="14.00" fill="#000000">0</text>
</g>
<!-- 0&#45;&gt;4 -->
<g id="edge9" class="edge">
<title>0&#45;&gt;4</title>
<path fill="none" stroke="#000000" d="M35.8883,-53.8241C41.6507,-54.9631 48.0776,-56.1363 54,-57 93.6168,-62.7777 139.7654,-66.8136 168.6842,-69.0208"/>
<polygon fill="#000000" stroke="#000000" points="168.6429,-72.5272 178.8745,-69.777 169.161,-65.5464 168.6429,-72.5272"/>
<text text-anchor="middle" x="111" y="-68.8" font-family="Times,serif" font-size="14.00" fill="#000000">279</text>
</g>
<!-- 0&#45;&gt;3 -->
<g id="edge8" class="edge">
<title>0&#45;&gt;3</title>
<path fill="none" stroke="#000000" d="M35.4926,-44.9215C49.1319,-40.9617 68.3149,-35.3924 83.9321,-30.8584"/>
<polygon fill="#000000" stroke="#000000" points="84.9582,-34.2051 93.5858,-28.0557 83.0065,-27.4827 84.9582,-34.2051"/>
<text text-anchor="middle" x="64.5" y="-41.8" font-family="Times,serif" font-size="14.00" fill="#000000">129</text>
</g>
</g>
</svg>
